<svg xmlns="http://www.w3.org/2000/svg" font-family="'Segoe UI', system-ui, -apple-system, sans-serif" viewBox="0 0 1100 950"><defs><filter id="shadow" width="108%" height="108%" x="-4%" y="-4%"><feDropShadow dx="0" dy="2" flood-opacity=".15" stdDeviation="3"/></filter><linearGradient id="bgGrad" x1="0" x2="0" y1="0" y2="1"><stop offset="0%" stop-color="#0d1117"/><stop offset="100%" stop-color="#161b22"/></linearGradient><linearGradient id="agentGrad" x1="0" x2="1" y1="0" y2="1"><stop offset="0%" stop-color="#1a1e2e"/><stop offset="100%" stop-color="#1e2436"/></linearGradient><linearGradient id="memGrad" x1="0" x2="1" y1="0" y2="1"><stop offset="0%" stop-color="#1a1a2e"/><stop offset="100%" stop-color="#1e1e36"/></linearGradient><marker id="arrowBlue" markerHeight="6" markerWidth="8" orient="auto" refX="8" refY="3"><path fill="#3b82f6" d="M0,0 L8,3 L0,6"/></marker><marker id="arrowAmber" markerHeight="6" markerWidth="8" orient="auto" refX="8" refY="3"><path fill="#f59e0b" d="M0,0 L8,3 L0,6"/></marker><marker id="arrowGreen" markerHeight="6" markerWidth="8" orient="auto" refX="8" refY="3"><path fill="#4ade80" d="M0,0 L8,3 L0,6"/></marker><marker id="arrowCyan" markerHeight="6" markerWidth="8" orient="auto" refX="8" refY="3"><path fill="#06b6d4" d="M0,0 L8,3 L0,6"/></marker><marker id="arrowPurple" markerHeight="6" markerWidth="8" orient="auto" refX="8" refY="3"><path fill="#c084fc" d="M0,0 L8,3 L0,6"/></marker><marker id="arrowViolet" markerHeight="6" markerWidth="8" orient="auto" refX="8" refY="3"><path fill="#8b5cf6" d="M0,0 L8,3 L0,6"/></marker></defs><rect width="1100" height="950" fill="url(#bgGrad)" rx="12"/><text x="550" y="38" fill="#e6edf3" font-size="22" font-weight="700" text-anchor="middle">ZeroClaw Architecture</text><text x="550" y="58" fill="#7d8590" font-size="12" text-anchor="middle">Zero overhead. Zero compromise. 100% Rust. 100% Agnostic. 8 pluggable traits.</text><rect width="150" height="310" x="20" y="80" fill="#1c2333" stroke="#3b82f6" stroke-width="1.5" filter="url(#shadow)" rx="10"/><text x="95" y="105" fill="#93c5fd" font-size="13" font-weight="600" text-anchor="middle">Chat Apps</text><rect width="120" height="24" x="35" y="120" fill="#1e293b" rx="6"/><text x="95" y="137" fill="#60a5fa" font-size="10" text-anchor="middle">Telegram</text><rect width="120" height="24" x="35" y="150" fill="#1e293b" rx="6"/><text x="95" y="167" fill="#818cf8" font-size="10" text-anchor="middle">Discord</text><rect width="120" height="24" x="35" y="180" fill="#1e293b" rx="6"/><text x="95" y="197" fill="#a78bfa" font-size="10" text-anchor="middle">Slack</text><rect width="120" height="24" x="35" y="210" fill="#1e293b" rx="6"/><text x="95" y="227" fill="#c084fc" font-size="10" text-anchor="middle">iMessage</text><rect width="120" height="24" x="35" y="240" fill="#1e293b" rx="6"/><text x="95" y="257" fill="#e879f9" font-size="10" text-anchor="middle">Matrix</text><rect width="120" height="24" x="35" y="270" fill="#1e293b" rx="6"/><text x="95" y="287" fill="#f472b6" font-size="10" text-anchor="middle">Webhook</text><rect width="120" height="24" x="35" y="300" fill="#1e293b" rx="6"/><text x="95" y="317" fill="#fb923c" font-size="10" text-anchor="middle">CLI</text><text x="95" y="355" fill="#7d8590" font-size="9" font-style="italic" text-anchor="middle">+ any Channel trait</text><line x1="170" x2="195" y1="230" y2="230" stroke="#3b82f6" stroke-width="2" marker-end="url(#arrowBlue)"/><rect width="190" height="310" x="200" y="80" fill="#1c2333" stroke="#f59e0b" stroke-width="1.5" filter="url(#shadow)" rx="10"/><text x="295" y="105" fill="#fbbf24" font-size="13" font-weight="600" text-anchor="middle">Security Layer</text><rect width="165" height="50" x="213" y="120" fill="#292524" stroke="#f59e0b" stroke-dasharray="4 2" stroke-width="1" rx="8"/><text x="295" y="138" fill="#fbbf24" font-size="10" font-weight="600" text-anchor="middle">Gateway Pairing</text><text x="295" y="153" fill="#a8a29e" font-size="8" text-anchor="middle">6-digit OTP + bearer tokens</text><text x="295" y="164" fill="#a8a29e" font-size="8" text-anchor="middle">constant-time comparison</text><rect width="165" height="45" x="213" y="178" fill="#292524" stroke="#f59e0b" stroke-dasharray="4 2" stroke-width="1" rx="8"/><text x="295" y="196" fill="#fbbf24" font-size="10" font-weight="600" text-anchor="middle">Auth Gate</text><text x="295" y="210" fill="#a8a29e" font-size="8" text-anchor="middle">Channel allowlists + webhook_secret</text><rect width="165" height="45" x="213" y="230" fill="#292524" stroke="#f59e0b" stroke-dasharray="4 2" stroke-width="1" rx="8"/><text x="295" y="248" fill="#fbbf24" font-size="10" font-weight="600" text-anchor="middle">Rate Limiter</text><text x="295" y="262" fill="#a8a29e" font-size="8" text-anchor="middle">sliding window, cost/day cap</text><rect width="165" height="50" x="213" y="282" fill="#292524" stroke="#f59e0b" stroke-dasharray="4 2" stroke-width="1" rx="8"/><text x="295" y="300" fill="#fbbf24" font-size="10" font-weight="600" text-anchor="middle">Filesystem Sandbox</text><text x="295" y="314" fill="#a8a29e" font-size="8" text-anchor="middle">path jail + null byte block</text><text x="295" y="325" fill="#a8a29e" font-size="8" text-anchor="middle">symlink escape detection</text><rect width="165" height="38" x="213" y="340" fill="#292524" stroke="#f59e0b" stroke-dasharray="4 2" stroke-width="1" rx="8"/><text x="295" y="358" fill="#fbbf24" font-size="10" font-weight="600" text-anchor="middle">Encrypted Secrets</text><text x="295" y="372" fill="#a8a29e" font-size="8" text-anchor="middle">XOR + local key file (0600)</text><line x1="295" x2="295" y1="390" y2="415" stroke="#f59e0b" stroke-width="2" marker-end="url(#arrowAmber)"/><rect width="180" height="200" x="405" y="80" fill="#1c2333" stroke="#06b6d4" stroke-width="1.5" filter="url(#shadow)" rx="10"/><text x="495" y="105" fill="#67e8f9" font-size="13" font-weight="600" text-anchor="middle">Agnostic Tunnel</text><text x="495" y="120" fill="#7d8590" font-size="9" text-anchor="middle">Bring Your Own</text><rect width="155" height="22" x="418" y="132" fill="#1e293b" rx="5"/><text x="495" y="148" fill="#22d3ee" font-size="10" text-anchor="middle">Cloudflare</text><rect width="155" height="22" x="418" y="160" fill="#1e293b" rx="5"/><text x="495" y="176" fill="#22d3ee" font-size="10" text-anchor="middle">Tailscale</text><rect width="155" height="22" x="418" y="188" fill="#1e293b" rx="5"/><text x="495" y="204" fill="#22d3ee" font-size="10" text-anchor="middle">ngrok</text><rect width="155" height="22" x="418" y="216" fill="#1e293b" rx="5"/><text x="495" y="232" fill="#22d3ee" font-size="10" text-anchor="middle">Custom (bore, frp, ssh...)</text><text x="495" y="265" fill="#7d8590" font-size="9" font-style="italic" text-anchor="middle">+ any Tunnel trait</text><line x1="495" x2="495" y1="280" y2="415" stroke="#06b6d4" stroke-width="2" marker-end="url(#arrowCyan)"/><rect width="480" height="200" x="600" y="80" fill="#1c2333" stroke="#22c55e" stroke-width="1.5" filter="url(#shadow)" rx="10"/><text x="840" y="105" fill="#4ade80" font-size="13" font-weight="600" text-anchor="middle">AI Providers (22+)</text><text x="840" y="120" fill="#7d8590" font-size="9" text-anchor="middle">Any OpenAI-compatible API</text><rect width="105" height="22" x="615" y="132" fill="#1a2e1a" rx="5"/><text x="667" y="148" fill="#86efac" font-size="9" text-anchor="middle">OpenRouter</text><rect width="105" height="22" x="730" y="132" fill="#1a2e1a" rx="5"/><text x="782" y="148" fill="#86efac" font-size="9" text-anchor="middle">Anthropic</text><rect width="105" height="22" x="845" y="132" fill="#1a2e1a" rx="5"/><text x="897" y="148" fill="#86efac" font-size="9" text-anchor="middle">OpenAI</text><rect width="105" height="22" x="960" y="132" fill="#1a2e1a" rx="5"/><text x="1012" y="148" fill="#86efac" font-size="9" text-anchor="middle">Ollama</text><rect width="105" height="22" x="615" y="160" fill="#1a2e1a" rx="5"/><text x="667" y="176" fill="#86efac" font-size="9" text-anchor="middle">Venice</text><rect width="105" height="22" x="730" y="160" fill="#1a2e1a" rx="5"/><text x="782" y="176" fill="#86efac" font-size="9" text-anchor="middle">Groq</text><rect width="105" height="22" x="845" y="160" fill="#1a2e1a" rx="5"/><text x="897" y="176" fill="#86efac" font-size="9" text-anchor="middle">Mistral</text><rect width="105" height="22" x="960" y="160" fill="#1a2e1a" rx="5"/><text x="1012" y="176" fill="#86efac" font-size="9" text-anchor="middle">xAI / Grok</text><rect width="105" height="22" x="615" y="188" fill="#1a2e1a" rx="5"/><text x="667" y="204" fill="#86efac" font-size="9" text-anchor="middle">DeepSeek</text><rect width="105" height="22" x="730" y="188" fill="#1a2e1a" rx="5"/><text x="782" y="204" fill="#86efac" font-size="9" text-anchor="middle">Together AI</text><rect width="105" height="22" x="845" y="188" fill="#1a2e1a" rx="5"/><text x="897" y="204" fill="#86efac" font-size="9" text-anchor="middle">Fireworks</text><rect width="105" height="22" x="960" y="188" fill="#1a2e1a" rx="5"/><text x="1012" y="204" fill="#86efac" font-size="9" text-anchor="middle">Perplexity</text><rect width="105" height="22" x="615" y="216" fill="#1a2e1a" rx="5"/><text x="667" y="232" fill="#86efac" font-size="9" text-anchor="middle">Cohere</text><rect width="105" height="22" x="730" y="216" fill="#1a2e1a" rx="5"/><text x="782" y="232" fill="#86efac" font-size="9" text-anchor="middle">Cloudflare AI</text><rect width="105" height="22" x="845" y="216" fill="#1a2e1a" rx="5"/><text x="897" y="232" fill="#86efac" font-size="9" text-anchor="middle">Bedrock</text><rect width="105" height="22" x="960" y="216" fill="#1e3a1e" stroke="#4ade80" stroke-dasharray="3 2" stroke-width="1" rx="5"/><text x="1012" y="232" fill="#4ade80" font-size="9" font-weight="600" text-anchor="middle">custom:URL</text><text x="840" y="262" fill="#7d8590" font-size="9" font-style="italic" text-anchor="middle">+ any Provider trait / custom:URL</text><line x1="840" x2="560" y1="280" y2="440" stroke="#22c55e" stroke-dasharray="6 3" stroke-width="1.5" marker-end="url(#arrowGreen)"/><rect width="1060" height="130" x="20" y="420" fill="url(#agentGrad)" stroke="#22c55e" stroke-width="1.5" filter="url(#shadow)" rx="12"/><text x="550" y="445" fill="#4ade80" font-size="14" font-weight="700" text-anchor="middle">Agent Loop</text><rect width="110" height="42" x="50" y="460" fill="#1a2e1a" stroke="#4ade80" stroke-width="1" rx="8"/><text x="105" y="478" fill="#4ade80" font-size="10" font-weight="600" text-anchor="middle">Message</text><text x="105" y="495" fill="#86efac" font-size="14" text-anchor="middle">In</text><rect width="110" height="42" x="200" y="460" fill="#1a2e1a" stroke="#4ade80" stroke-width="1" rx="8"/><text x="255" y="478" fill="#4ade80" font-size="10" font-weight="600" text-anchor="middle">Memory Recall</text><text x="255" y="495" fill="#86efac" font-size="14" text-anchor="middle">ctx</text><rect width="110" height="42" x="350" y="460" fill="#1a2e1a" stroke="#4ade80" stroke-width="1" rx="8"/><text x="405" y="478" fill="#4ade80" font-size="10" font-weight="600" text-anchor="middle">LLM</text><text x="405" y="495" fill="#86efac" font-size="14" text-anchor="middle">AI</text><rect width="110" height="42" x="500" y="460" fill="#1a2e1a" stroke="#4ade80" stroke-width="1" rx="8"/><text x="555" y="478" fill="#4ade80" font-size="10" font-weight="600" text-anchor="middle">Tools</text><text x="555" y="495" fill="#86efac" font-size="14" text-anchor="middle">exec</text><rect width="110" height="42" x="650" y="460" fill="#1a2e1a" stroke="#4ade80" stroke-width="1" rx="8"/><text x="705" y="478" fill="#4ade80" font-size="10" font-weight="600" text-anchor="middle">Memory Save</text><text x="705" y="495" fill="#86efac" font-size="14" text-anchor="middle">store</text><rect width="110" height="42" x="800" y="460" fill="#1a2e1a" stroke="#4ade80" stroke-width="1" rx="8"/><text x="855" y="478" fill="#4ade80" font-size="10" font-weight="600" text-anchor="middle">Response</text><text x="855" y="495" fill="#86efac" font-size="14" text-anchor="middle">Out</text><rect width="110" height="42" x="950" y="460" fill="#1a2e1a" stroke="#4ade80" stroke-dasharray="4 2" stroke-width="1" rx="8"/><text x="1005" y="478" fill="#4ade80" font-size="9" font-weight="600" text-anchor="middle">Composio</text><text x="1005" y="493" fill="#7d8590" font-size="8" text-anchor="middle">1000+ OAuth</text><line x1="160" x2="200" y1="481" y2="481" stroke="#4ade80" stroke-width="1.5" marker-end="url(#arrowGreen)"/><line x1="310" x2="350" y1="481" y2="481" stroke="#4ade80" stroke-width="1.5" marker-end="url(#arrowGreen)"/><line x1="460" x2="500" y1="481" y2="481" stroke="#4ade80" stroke-width="1.5" marker-end="url(#arrowGreen)"/><line x1="610" x2="650" y1="481" y2="481" stroke="#4ade80" stroke-width="1.5" marker-end="url(#arrowGreen)"/><line x1="760" x2="800" y1="481" y2="481" stroke="#4ade80" stroke-width="1.5" marker-end="url(#arrowGreen)"/><rect width="530" height="170" x="20" y="570" fill="url(#memGrad)" stroke="#8b5cf6" stroke-width="1.5" filter="url(#shadow)" rx="10"/><text x="285" y="595" fill="#c4b5fd" font-size="13" font-weight="700" text-anchor="middle">Memory Search Engine (All Custom)</text><text x="285" y="610" fill="#7d8590" font-size="9" text-anchor="middle">No Pinecone, no Elasticsearch, no LangChain</text><rect width="245" height="24" x="35" y="622" fill="#1e1a2e" stroke="#8b5cf6" stroke-width=".5" rx="5"/><text x="45" y="639" fill="#c4b5fd" font-size="9" font-weight="600">Vector DB</text><text x="157" y="639" fill="#a78bfa" font-size="8" text-anchor="middle">SQLite BLOB + cosine similarity</text><rect width="245" height="24" x="290" y="622" fill="#1e1a2e" stroke="#8b5cf6" stroke-width=".5" rx="5"/><text x="300" y="639" fill="#c4b5fd" font-size="9" font-weight="600">Keyword</text><text x="412" y="639" fill="#a78bfa" font-size="8" text-anchor="middle">FTS5 virtual tables + BM25</text><rect width="245" height="24" x="35" y="652" fill="#1e1a2e" stroke="#8b5cf6" stroke-width=".5" rx="5"/><text x="45" y="669" fill="#c4b5fd" font-size="9" font-weight="600">Hybrid Merge</text><text x="157" y="669" fill="#a78bfa" font-size="8" text-anchor="middle">Weighted vector + keyword fusion</text><rect width="245" height="24" x="290" y="652" fill="#1e1a2e" stroke="#8b5cf6" stroke-width=".5" rx="5"/><text x="300" y="669" fill="#c4b5fd" font-size="9" font-weight="600">Embeddings</text><text x="412" y="669" fill="#a78bfa" font-size="8" text-anchor="middle">OpenAI / custom URL / noop</text><rect width="245" height="24" x="35" y="682" fill="#1e1a2e" stroke="#8b5cf6" stroke-width=".5" rx="5"/><text x="45" y="699" fill="#c4b5fd" font-size="9" font-weight="600">Chunking</text><text x="157" y="699" fill="#a78bfa" font-size="8" text-anchor="middle">Markdown-aware + heading ctx</text><rect width="245" height="24" x="290" y="682" fill="#1e1a2e" stroke="#8b5cf6" stroke-width=".5" rx="5"/><text x="300" y="699" fill="#c4b5fd" font-size="9" font-weight="600">Caching</text><text x="412" y="699" fill="#a78bfa" font-size="8" text-anchor="middle">embedding_cache + LRU eviction</text><rect width="500" height="20" x="35" y="712" fill="#1e1a2e" stroke="#8b5cf6" stroke-width=".5" rx="5"/><text x="285" y="726" fill="#a78bfa" font-size="8" text-anchor="middle">Safe Reindex: rebuild FTS5 + re-embed missing vectors atomically | LIKE fallback | Upsert/Delete/Reindex</text><line x1="255" x2="255" y1="550" y2="570" stroke="#8b5cf6" stroke-width="2" marker-end="url(#arrowViolet)"/><rect width="250" height="170" x="570" y="570" fill="#1c2333" stroke="#ef4444" stroke-width="1.5" filter="url(#shadow)" rx="10"/><text x="695" y="595" fill="#fca5a5" font-size="13" font-weight="600" text-anchor="middle">Sandbox</text><text x="695" y="618" fill="#ef4444" font-size="9" text-anchor="middle">Command allowlist</text><text x="695" y="635" fill="#ef4444" font-size="9" text-anchor="middle">Path jail + traversal block</text><text x="695" y="652" fill="#ef4444" font-size="9" text-anchor="middle">Browser domain allowlist</text><text x="695" y="669" fill="#ef4444" font-size="9" text-anchor="middle">Null byte + Symlink escape block</text><text x="695" y="686" fill="#ef4444" font-size="9" text-anchor="middle">System dirs + Dotfiles blocked</text><text x="695" y="706" fill="#ef4444" font-size="9" text-anchor="middle">Default: Supervised + workspace-only</text><text x="695" y="726" fill="#ef4444" font-size="9" text-anchor="middle">Levels: ReadOnly / Supervised / Full</text><line x1="695" x2="695" y1="550" y2="570" stroke="#ef4444" stroke-width="2"/><rect width="240" height="170" x="840" y="570" fill="#1c2333" stroke="#06b6d4" stroke-width="1.5" filter="url(#shadow)" rx="10"/><text x="960" y="595" fill="#67e8f9" font-size="13" font-weight="600" text-anchor="middle">Heartbeat &amp; Cron</text><text x="960" y="620" fill="#22d3ee" font-size="9" text-anchor="middle">HEARTBEAT.md periodic tasks</text><text x="960" y="640" fill="#22d3ee" font-size="9" text-anchor="middle">Scheduled actions</text><text x="960" y="660" fill="#22d3ee" font-size="9" text-anchor="middle">Skills loader (TOML manifests)</text><text x="960" y="680" fill="#22d3ee" font-size="9" text-anchor="middle">50+ integrations registry</text><text x="960" y="700" fill="#22d3ee" font-size="9" text-anchor="middle">Observability (noop/log/multi)</text><line x1="960" x2="960" y1="550" y2="570" stroke="#06b6d4" stroke-width="2"/><rect width="1060" height="170" x="20" y="760" fill="#1c2333" stroke="#f472b6" stroke-width="1.5" filter="url(#shadow)" rx="10"/><text x="550" y="785" fill="#f9a8d4" font-size="14" font-weight="700" text-anchor="middle">Setup Wizard -- zeroclaw onboard (quick default | --interactive for full wizard)</text><text x="550" y="802" fill="#7d8590" font-size="10" text-anchor="middle">7 steps, under 60 seconds | Live connection testing | Secure defaults</text><rect width="130" height="38" x="30" y="815" fill="#2d1f3d" stroke="#c084fc" stroke-width="1" rx="8"/><text x="95" y="831" fill="#e9d5ff" font-size="8" font-weight="600" text-anchor="middle">1. Workspace</text><text x="95" y="845" fill="#a78bfa" font-size="7" text-anchor="middle">~/.zeroclaw/</text><rect width="130" height="38" x="170" y="815" fill="#2d1f3d" stroke="#c084fc" stroke-width="1" rx="8"/><text x="235" y="831" fill="#e9d5ff" font-size="8" font-weight="600" text-anchor="middle">2. AI Provider</text><text x="235" y="845" fill="#a78bfa" font-size="7" text-anchor="middle">22+ or custom URL</text><rect width="130" height="38" x="310" y="815" fill="#2d1f3d" stroke="#c084fc" stroke-width="1" rx="8"/><text x="375" y="831" fill="#e9d5ff" font-size="8" font-weight="600" text-anchor="middle">3. Channels</text><text x="375" y="845" fill="#a78bfa" font-size="7" text-anchor="middle">7 channels + live test</text><rect width="130" height="38" x="450" y="815" fill="#2d1f3d" stroke="#c084fc" stroke-width="1" rx="8"/><text x="515" y="831" fill="#e9d5ff" font-size="8" font-weight="600" text-anchor="middle">4. Tunnel</text><text x="515" y="845" fill="#a78bfa" font-size="7" text-anchor="middle">5 providers or skip</text><rect width="130" height="38" x="590" y="815" fill="#2d1f3d" stroke="#c084fc" stroke-width="1" rx="8"/><text x="655" y="831" fill="#e9d5ff" font-size="8" font-weight="600" text-anchor="middle">5. Tool Mode</text><text x="655" y="845" fill="#a78bfa" font-size="7" text-anchor="middle">Sovereign / Composio</text><rect width="130" height="38" x="730" y="815" fill="#2d1f3d" stroke="#c084fc" stroke-width="1" rx="8"/><text x="795" y="831" fill="#e9d5ff" font-size="8" font-weight="600" text-anchor="middle">6. Personalize</text><text x="795" y="845" fill="#a78bfa" font-size="7" text-anchor="middle">name, style, timezone</text><rect width="130" height="38" x="870" y="815" fill="#2d1f3d" stroke="#c084fc" stroke-width="1" rx="8"/><text x="935" y="831" fill="#e9d5ff" font-size="8" font-weight="600" text-anchor="middle">7. Scaffold</text><text x="935" y="845" fill="#a78bfa" font-size="7" text-anchor="middle">8 workspace MD files</text><line x1="160" x2="170" y1="834" y2="834" stroke="#c084fc" stroke-width="1" marker-end="url(#arrowPurple)"/><line x1="300" x2="310" y1="834" y2="834" stroke="#c084fc" stroke-width="1" marker-end="url(#arrowPurple)"/><line x1="440" x2="450" y1="834" y2="834" stroke="#c084fc" stroke-width="1" marker-end="url(#arrowPurple)"/><line x1="580" x2="590" y1="834" y2="834" stroke="#c084fc" stroke-width="1" marker-end="url(#arrowPurple)"/><line x1="720" x2="730" y1="834" y2="834" stroke="#c084fc" stroke-width="1" marker-end="url(#arrowPurple)"/><line x1="860" x2="870" y1="834" y2="834" stroke="#c084fc" stroke-width="1" marker-end="url(#arrowPurple)"/><text x="550" y="872" fill="#7d8590" font-size="9" text-anchor="middle">Full summary: Provider, Model, Channels, Tunnel, Composio, Secrets, Gateway, Autonomy, Memory</text><rect width="340" height="28" x="380" y="888" fill="#166534" stroke="#4ade80" stroke-width="1" rx="14"/><text x="550" y="907" fill="#4ade80" font-size="12" font-weight="600" text-anchor="middle">Ready -- zeroclaw agent</text><text x="550" y="942" fill="#7d8590" font-size="10" text-anchor="middle">~3.4MB binary | &lt;10ms startup | 1,050 tests | 22+ providers | 8 traits | 18,900+ lines of Rust | 0 clippy warnings</text></svg>